<?xml version="1.0" standalone="no"?>
<!DOCTYPE svg PUBLIC "-//W3C//DTD SVG 20010904//EN"
 "http://www.w3.org/TR/2001/REC-SVG-20010904/DTD/svg10.dtd">
<svg version="1.0" xmlns="http://www.w3.org/2000/svg"
 width="472.000000pt" height="472.000000pt" viewBox="0 0 472.000000 472.000000"
 preserveAspectRatio="xMidYMid meet">
<metadata>
Created by potrace 1.11, written by Peter Selinger 2001-2013
</metadata>
<g transform="translate(0.000000,472.000000) scale(0.100000,-0.100000)"
fill="#000000" stroke="none">
<path d="M2890 2723 c0 -78 -3 -100 -17 -116 -16 -17 -18 -46 -21 -228 l-3
-209 -214 0 -213 0 -70 63 c-39 34 -71 66 -71 71 -1 4 22 34 49 66 28 32 50
62 50 68 0 13 -48 44 -59 38 -18 -12 -256 -297 -256 -307 0 -7 13 -21 29 -33
l28 -21 32 39 c17 22 41 51 53 65 l22 26 50 -50 c28 -27 51 -52 51 -55 0 -4
-41 -54 -91 -113 l-91 -107 -125 0 -125 0 31 29 c36 34 40 67 10 104 -20 26
-23 26 -157 29 l-137 3 -3 106 c-3 120 -15 143 -73 141 -55 -1 -63 -20 -69
-149 l-5 -117 -77 -23 -78 -24 0 -55 0 -56 28 6 c68 17 257 18 327 2 189 -44
369 -185 453 -357 46 -93 72 -193 72 -279 l0 -55 138 138 138 138 240 -1 241
-1 47 32 c60 40 162 76 241 84 68 8 170 -8 232 -35 l42 -18 8 56 c4 32 8 155
8 275 l0 219 -33 29 -32 29 -220 0 -220 0 0 208 c0 194 -1 210 -20 230 -17 18
-20 35 -20 117 l0 95 -60 0 -60 0 0 -97z m470 -713 c24 -24 25 -43 4 -64 -14
-14 -72 -16 -494 -16 -422 0 -480 2 -494 16 -21 20 -20 43 1 66 15 17 44 18
490 18 460 0 474 -1 493 -20z"/>
<path d="M1470 1829 c-133 -14 -239 -67 -341 -168 -120 -120 -176 -268 -166
-441 7 -118 34 -198 99 -296 170 -254 512 -328 784 -169 115 67 223 214 259
351 20 76 19 218 -1 298 -27 108 -102 224 -193 299 -120 99 -276 143 -441 126z
m212 -258 c264 -127 272 -494 13 -622 -232 -114 -497 49 -496 306 0 150 76
262 218 321 75 32 192 30 265 -5z"/>
<path d="M1491 1514 c-26 -33 -26 -55 -3 -85 39 -47 122 -16 122 45 0 61 -82
88 -119 40z"/>
<path d="M1312 1414 c-26 -18 -30 -74 -6 -98 21 -22 77 -20 97 2 23 25 21 68
-3 92 -24 24 -57 26 -88 4z"/>
<path d="M1682 1407 c-27 -28 -28 -57 -4 -88 37 -45 122 -16 122 41 0 9 -9 29
-21 44 -26 33 -68 34 -97 3z"/>
<path d="M1490 1283 c-38 -48 -8 -103 56 -103 57 0 85 69 44 110 -29 29 -74
26 -100 -7z"/>
<path d="M1306 1194 c-22 -21 -20 -77 2 -97 25 -23 68 -21 92 3 41 41 13 110
-45 110 -18 0 -41 -7 -49 -16z"/>
<path d="M1680 1190 c-26 -26 -25 -60 0 -88 20 -22 64 -29 86 -14 15 10 34 47
34 66 0 26 -38 56 -70 56 -17 0 -39 -9 -50 -20z"/>
<path d="M1496 1085 c-26 -27 -29 -56 -9 -84 55 -74 160 1 107 77 -18 26 -74
30 -98 7z"/>
<path d="M3200 1505 c-119 -34 -212 -111 -268 -223 -36 -74 -37 -79 -37 -186
0 -104 2 -115 32 -179 81 -170 268 -269 449 -238 139 25 254 111 315 237 32
66 34 74 34 179 0 105 -2 113 -34 179 -69 141 -203 232 -356 241 -55 3 -97 0
-135 -10z m211 -260 c120 -79 99 -274 -34 -324 -80 -30 -182 3 -221 72 -34 61
-39 92 -22 151 36 121 172 171 277 101z"/>
<path d="M3262 1137 c-27 -28 -28 -57 -4 -88 37 -45 122 -16 122 41 0 9 -9 29
-21 44 -26 33 -68 34 -97 3z"/>
</g>
</svg>
