<?xml version="1.0" encoding="UTF-8" standalone="no"?>
<!-- Created with Inkscape (http://www.inkscape.org/) -->

<svg
   xmlns:dc="http://purl.org/dc/elements/1.1/"
   xmlns:cc="http://creativecommons.org/ns#"
   xmlns:rdf="http://www.w3.org/1999/02/22-rdf-syntax-ns#"
   xmlns:svg="http://www.w3.org/2000/svg"
   xmlns="http://www.w3.org/2000/svg"
   xmlns:sodipodi="http://sodipodi.sourceforge.net/DTD/sodipodi-0.dtd"
   xmlns:inkscape="http://www.inkscape.org/namespaces/inkscape"
   id="svg2"
   version="1.1"
   inkscape:version="0.48.4 r9939"
   width="354.325"
   height="104.6375"
   xml:space="preserve"
   sodipodi:docname="coding_farm_v4_blog.svg"><metadata
     id="metadata8"><rdf:RDF><cc:Work
         rdf:about=""><dc:format>image/svg+xml</dc:format><dc:type
           rdf:resource="http://purl.org/dc/dcmitype/StillImage" /><dc:title></dc:title></cc:Work></rdf:RDF></metadata><defs
     id="defs6" /><sodipodi:namedview
     pagecolor="#ffffff"
     bordercolor="#666666"
     borderopacity="1"
     objecttolerance="10"
     gridtolerance="10"
     guidetolerance="10"
     inkscape:pageopacity="0"
     inkscape:pageshadow="2"
     inkscape:window-width="1920"
     inkscape:window-height="1025"
     id="namedview4"
     showgrid="false"
     inkscape:zoom="1.1091512"
     inkscape:cx="177.16251"
     inkscape:cy="52.318748"
     inkscape:window-x="-2"
     inkscape:window-y="-3"
     inkscape:window-maximized="1"
     inkscape:current-layer="g12" /><g
     id="g10"
     inkscape:groupmode="layer"
     inkscape:label="ink_ext_XXXXXX"
     transform="matrix(1.25,0,0,-1.25,0,104.6375)"><g
       id="g12"
       transform="scale(0.1,0.1)"><path
         d="m 2520.28,570.246 -23.02,0 0,-37.969 c -4.11,-3.355 -6.75,-8.457 -6.75,-14.148 l 0,-67.379 -78.76,0 -24.52,22.473 15.23,15.89 c 3.65,3.809 3.52,9.907 -0.29,13.555 l 0,0 c -3.8,3.645 -9.9,3.516 -13.54,-0.289 l -40.96,-42.746 c -3.65,-3.805 -3.52,-9.899 0.29,-13.543 l 0,-0.004 c 3.81,-3.648 9.9,-3.52 13.55,0.289 l 15.53,16.211 18.39,-18.16 -33.33,-39.5 -49.07,0 c 8.24,0.105 14.96,6.883 14.96,15.156 l 0,0.008 c 0,8.336 -6.82,15.156 -15.16,15.156 l -43.28,0 0,32.484 c 0,7.348 -6.01,13.36 -13.36,13.36 l 0,0 c -7.35,0 -13.36,-6.012 -13.36,-13.36 l 0,-36.093 -30.19,-9.399 0.2,-21.363 c 11.08,3.215 22.8,4.949 34.92,4.949 69.07,0 125.05,-55.984 125.05,-125.043 0,-2.613 -0.09,-5.211 -0.25,-7.781 l 0.01,-0.012 53.48,52.231 85.71,-0.461 0,-0.008 c 16.66,13.98 38.14,22.406 61.59,22.406 15.67,0 30.46,-3.761 43.53,-10.429 3.01,26.8 5.28,54.828 4.5,87.308 -0.58,24.594 -12.86,26.715 -21.71,26.715 l -72.63,0 0,67.379 c 0,5.691 -2.64,10.793 -6.76,14.148 l 0,37.969 z M 2408.16,422.965 c -4.71,0 -8.56,-3.856 -8.56,-8.57 l 0,0 c 0,-4.715 3.85,-8.571 8.56,-8.571 l 168.75,0 c 4.71,0 8.57,3.856 8.57,8.571 l 0,0 c 0,4.714 -3.86,8.57 -8.57,8.57 l -168.75,0"
         style="fill:#6DA220;fill-opacity:1;fill-rule:evenodd;stroke:none"
         id="path16" /><path
         d="m 2573.35,329.613 c -43.26,0 -78.33,-35.066 -78.33,-78.328 0,-43.258 35.07,-78.328 78.33,-78.328 43.26,0 78.33,35.07 78.33,78.328 0,43.262 -35.07,78.328 -78.33,78.328 z m 0,-44.109 c -18.9,0 -34.22,-15.316 -34.22,-34.219 0,-18.894 15.32,-34.215 34.22,-34.215 18.9,0 34.22,15.321 34.22,34.215 0,18.903 -15.32,34.219 -34.22,34.219 z m 0,-21.352 c -7.1,0 -12.86,-5.761 -12.86,-12.867 0,-7.101 5.76,-12.859 12.86,-12.859 7.1,0 12.86,5.758 12.86,12.859 0,7.106 -5.76,12.867 -12.86,12.867"
         style="fill:#3a3c41;fill-opacity:1;fill-rule:evenodd;stroke:none"
         id="path18" /><path
         d="m 2247.76,388.605 c -59.54,0 -107.82,-48.277 -107.82,-107.824 0,-59.551 48.28,-107.824 107.82,-107.824 59.55,0 107.83,48.273 107.83,107.824 0,59.547 -48.28,107.824 -107.83,107.824 z m 0,-43.957 c -35.27,0 -63.86,-28.597 -63.86,-63.867 0,-35.277 28.59,-63.871 63.86,-63.871 35.28,0 63.87,28.594 63.87,63.871 0,35.27 -28.59,63.867 -63.87,63.867 z m 0,-10.996 c -7.1,0 -12.86,-5.757 -12.86,-12.863 0,-7.101 5.76,-12.863 12.86,-12.863 7.11,0 12.87,5.762 12.87,12.863 0,7.106 -5.76,12.863 -12.87,12.863 z m -45.78,-26.437 c -3.56,-6.152 -1.45,-14.016 4.7,-17.57 6.16,-3.551 14.02,-1.446 17.57,4.71 3.56,6.153 1.45,14.016 -4.7,17.571 -6.16,3.551 -14.02,1.441 -17.57,-4.711 z m 0,-52.871 c 3.55,-6.153 11.41,-8.258 17.57,-4.707 6.15,3.551 8.26,11.418 4.7,17.566 -3.55,6.152 -11.41,8.262 -17.57,4.711 -6.15,-3.555 -8.26,-11.418 -4.7,-17.57 z m 45.78,-26.438 c 7.11,0 12.87,5.758 12.87,12.864 0,7.101 -5.76,12.859 -12.87,12.859 -7.1,0 -12.86,-5.758 -12.86,-12.859 0,-7.106 5.76,-12.864 12.86,-12.864 z m 45.79,26.438 c 3.56,6.152 1.45,14.015 -4.7,17.57 -6.16,3.551 -14.02,1.441 -17.57,-4.711 -3.55,-6.148 -1.45,-14.015 4.7,-17.566 6.16,-3.551 14.02,-1.446 17.57,4.707 z m 0,52.871 c -3.55,6.152 -11.41,8.262 -17.57,4.711 -6.15,-3.555 -8.25,-11.418 -4.7,-17.574 3.55,-6.153 11.41,-8.258 17.57,-4.707 6.15,3.554 8.26,11.418 4.7,17.57 z m -45.79,-15.36 c -7.1,0 -12.86,-5.761 -12.86,-12.863 0,-7.101 5.76,-12.863 12.86,-12.863 7.11,0 12.87,5.762 12.87,12.863 0,7.102 -5.76,12.863 -12.87,12.863"
         style="fill:#3a3c41;fill-opacity:1;fill-rule:evenodd;stroke:none"
         id="path20" /><path
         d="m 2406.28,807.82 c -6.75,-2.011 -13.86,1.832 -15.87,8.586 -2.01,6.754 1.83,13.864 8.58,15.875 17.52,5.285 34.18,6.047 49.33,3.317 18.03,-3.254 33.74,-11.442 46.15,-22.852 12.39,-11.387 21.52,-26 26.4,-42.137 l 0.01,0.004 c 3.4,-11.254 4.72,-23.293 3.62,-35.535 6.91,-5.277 12.75,-11.871 17.13,-19.414 5.68,-9.785 8.93,-21.117 8.93,-33.168 0,-5.75 -0.77,-11.418 -2.21,-16.883 -0.62,-2.351 -1.37,-4.664 -2.23,-6.91 2.24,-2.828 4.18,-5.914 5.74,-9.203 2.95,-6.219 4.6,-13.137 4.6,-20.395 0,-13.167 -5.34,-25.093 -13.97,-33.722 -8.63,-8.625 -20.55,-13.969 -33.72,-13.969 -13.16,0 -25.09,5.344 -33.72,13.969 -6.65,6.648 -11.34,15.254 -13.15,24.875 -7.1,2.562 -13.64,6.312 -19.37,11.008 -6,4.902 -11.13,10.882 -15.12,17.656 -15.17,0.449 -29.47,4.496 -42.08,11.316 -13.89,7.512 -25.69,18.379 -34.29,31.496 -3.85,5.899 -2.2,13.813 3.7,17.668 5.89,3.86 13.81,2.207 17.67,-3.691 6.29,-9.609 14.89,-17.551 25,-23.012 9.74,-5.265 20.93,-8.261 32.85,-8.261 1.57,0 1.81,-0.02 2.06,-0.012 l 0.05,0 2.04,0.109 8.97,0.535 3.5,-8.32 c 2.58,-6.117 6.67,-11.504 11.82,-15.719 5.03,-4.109 11.06,-7.043 17.67,-8.359 l 10.38,-2.07 -0.14,-10.61 -0.02,-0.887 0.05,0 c 0,-6.109 2.48,-11.648 6.48,-15.652 4.01,-4 9.54,-6.48 15.65,-6.48 6.11,0 11.65,2.48 15.65,6.48 4,4.004 6.48,9.543 6.48,15.652 0,3.442 -0.75,6.668 -2.1,9.512 -1.42,2.988 -3.48,5.606 -5.99,7.653 l -8.36,6.828 5.31,9.347 c 1.7,2.989 3.03,6.231 3.94,9.66 0.85,3.239 1.31,6.719 1.31,10.391 0,7.473 -1.99,14.434 -5.45,20.391 -3.6,6.207 -8.8,11.375 -15.01,14.926 l -7.84,4.476 1.6,8.848 c 1.97,10.937 1.19,21.902 -1.89,32.09 l 0,0.05 c -3.55,11.758 -10.19,22.407 -19.22,30.7 -9.01,8.281 -20.37,14.218 -33.38,16.562 -11.27,2.031 -23.93,1.387 -37.54,-2.719"
         style="fill:#d3d2d2;fill-opacity:1;fill-rule:nonzero;stroke:none"
         id="path22" /><path
         d="m 2832.56,259.277 c 0,0.696 0.35,0.696 0.35,1.039 0.35,0.696 0.35,1.735 1.04,3.122 0,0.347 0.35,0.347 0.35,0.695 0,1.039 0,1.734 0,2.773 0,0.352 0.35,1.391 0.35,1.735 0,0.347 -0.35,1.39 -0.35,1.738 0,0.691 0,1.73 0,2.426 0,0.695 -0.35,0.695 -0.35,1.043 -0.69,1.386 -0.69,2.082 -1.04,3.121 0,0.347 -0.35,0.347 -0.35,0.691 -0.34,1.043 -1.04,1.735 -1.73,3.125 0,0 0,0.695 -0.35,0.695 -0.69,0.696 -1.38,1.735 -2.43,2.43 l -97.49,98.875 c -8.67,8.328 -22.9,8.328 -31.22,0 -8.67,-8.672 -8.67,-22.551 0,-31.222 l 82.22,-82.922 -82.22,-82.918 c -8.67,-9.02 -8.67,-22.551 0,-31.223 4.51,-4.164 9.71,-6.246 15.61,-6.246 5.55,0 11.45,2.082 15.61,6.246 l 97.49,98.879 c 1.05,0.691 1.74,1.734 2.43,2.426 0.35,0 0.35,0.347 0.35,0.347 0.69,1.391 1.39,2.43 1.73,3.125"
         style="fill:#bdbbbc;fill-opacity:1;fill-rule:nonzero;stroke:none"
         id="path24" /><path
         d="m 53.082,268.641 82.227,82.922 c 8.675,8.671 8.675,22.55 0,31.222 -8.329,8.328 -22.551,8.328 -31.227,0 L 6.59375,283.91 c -1.03906,-0.695 -1.73437,-1.734 -2.08203,-2.43 -0.69531,0 -0.69531,-0.695 -0.69531,-0.695 -0.69141,-0.695 -1.04297,-2.082 -1.73047,-3.125 0,-0.344 -0.35156,-0.344 -0.35156,-0.691 -0.34375,-1.039 -0.34375,-1.735 -0.69532,-2.774 0,-0.347 -0.691404,-0.695 -0.691404,-1.39 0,-0.696 0,-1.735 0,-2.426 C 0.347656,270.031 0,268.988 0,268.641 c 0,-1.039 0.347656,-1.383 0.347656,-2.078 0,-0.696 0,-1.391 0,-2.43 0,-0.348 0.691404,-0.695 0.691404,-1.735 0.35157,-0.347 0.35157,-1.386 0.69532,-2.082 0,-0.343 0.35156,-1.039 1.03906,-1.39 0.35156,-1.039 0.35156,-1.735 1.04297,-2.774 0,0 0.69531,-0.347 1.04297,-0.695 0.34375,-1.039 0.69531,-1.734 1.73437,-2.078 L 104.082,154.5 c 4.512,-4.164 10.063,-6.246 15.961,-6.246 5.551,0 10.754,2.082 15.266,6.246 8.675,8.672 8.675,22.203 0,31.223 l -82.227,82.918"
         style="fill:#bdbbbc;fill-opacity:1;fill-rule:nonzero;stroke:none"
         id="path26" /><path
         d="m 352.715,340.633 c 0,26.109 -44.387,33.945 -65.649,33.945 -56.699,0 -96.234,-49.613 -96.234,-104.07 0,-55.949 38.418,-103.32 96.234,-103.32 19.399,0 65.649,9.324 65.649,36.925 0,12.684 -10.445,23.5 -23.125,23.5 -6.344,0 -26.485,-11.191 -39.91,-11.191 -29.098,0 -45.133,27.601 -45.133,54.086 0,27.601 14.547,54.828 45.133,54.828 17.156,0 29.09,-10.441 42.519,-10.441 12.68,0 20.516,14.546 20.516,25.738 z m 101.656,33.945 c -56.699,0 -96.234,-49.613 -96.234,-104.07 0,-55.949 38.418,-103.32 96.234,-103.32 57.813,0 96.234,47.371 96.234,103.32 0,54.457 -39.539,104.07 -96.234,104.07 z m 0,-49.242 c 29.465,0 42.524,-29.09 42.524,-54.828 0,-25.738 -13.43,-54.086 -42.524,-54.086 -29.094,0 -42.523,28.348 -42.523,54.086 0,25.738 13.054,54.828 42.523,54.828 z M 751.48,429.035 c 0,17.903 -11.187,29.84 -26.855,29.84 -15.664,0 -26.855,-11.937 -26.855,-29.84 l 0,-73.113 c -14.176,12.312 -32.454,18.656 -51.102,18.656 -57.816,0 -86.535,-54.09 -86.535,-106.308 0,-50.731 34.316,-101.082 88.398,-101.082 18.278,0 39.164,8.203 49.239,24.617 3.359,-14.176 11.933,-22.383 26.855,-22.383 15.668,0 26.855,11.937 26.855,29.844 l 0,229.769 z M 697.77,272.371 c 0,-26.109 -12.68,-55.949 -42.149,-55.949 -27.976,0 -41.777,29.094 -41.777,54.086 0,25.363 13.801,54.828 41.777,54.828 28.719,0 42.149,-26.856 42.149,-52.965 z m 78.16,-73.105 c 0,-17.907 11.187,-29.844 26.851,-29.844 15.668,0 26.86,11.937 26.86,29.844 l 0,143.23 c 0,17.906 -11.192,29.84 -26.86,29.84 -15.664,0 -26.851,-11.934 -26.851,-29.84 l 0,-143.23 z m 26.851,253.64 c -16.035,0 -30.211,-14.176 -30.211,-29.468 0,-16.411 14.176,-30.958 30.211,-30.958 16.785,0 30.215,14.176 30.215,30.958 0,15.667 -14.172,29.468 -30.215,29.468 z m 51.305,-253.64 c 0,-17.907 11.191,-29.844 26.855,-29.844 15.664,0 26.856,11.937 26.856,29.844 l 0,93.621 c 0,20.886 12.308,36.929 34.316,36.929 19.399,0 35.063,-11.937 35.063,-36.929 l 0,-93.621 c 0,-17.907 11.191,-29.844 26.854,-29.844 15.67,0 26.86,11.937 26.86,29.844 l 0,102.945 c 0,45.508 -31.335,72.367 -73.484,72.367 -25.363,0 -41.402,-7.461 -51.843,-22.008 -1.868,12.309 -10.821,19.766 -24.622,19.766 -15.664,0 -26.855,-11.934 -26.855,-29.84 l 0,-143.23 z m 385.514,143.23 c 0,17.906 -11.19,29.84 -26.86,29.84 -14.92,0 -23.5,-8.203 -26.86,-22.379 -10.07,16.41 -30.95,24.621 -49.23,24.621 -54.09,0 -88.4,-50.355 -88.4,-104.441 0,-53.34 26.48,-102.949 82.81,-102.949 24.61,0 42.89,8.953 54.08,25.363 l 0.74,0 0,-12.684 c 0,-27.039 -19.39,-42.148 -45.5,-42.148 -30.96,0 -49.98,16.597 -67.14,16.597 -10.44,0 -21.63,-13.304 -21.63,-23.312 0,-29.469 62.66,-40.2813 84.67,-40.2813 61.17,0 103.32,32.4493 103.32,96.6053 l 0,155.168 z m -53.72,-73.109 c 0,-26.11 -13.42,-52.965 -42.14,-52.965 -27.98,0 -41.78,26.109 -41.78,54.832 0,24.992 13.8,54.082 41.78,54.082 29.47,0 42.14,-29.84 42.14,-55.949 z m 84.51,-73.106 c 0,-16.043 13.05,-29.093 29.09,-29.093 16.04,0 29.09,13.05 29.09,29.093 0,16.039 -13.05,29.094 -29.09,29.094 -16.04,0 -29.09,-13.055 -29.09,-29.094 z m 97.55,2.985 c 0,-17.907 11.19,-29.844 26.86,-29.844 15.66,0 26.85,11.937 26.85,29.844 l 0,123.836 16.79,0 c 15.67,0 27.23,6.714 27.23,23.5 0,17.156 -11.19,23.496 -27.23,23.496 l -16.79,0 0,22.011 c 0,19.766 8.96,19.766 17.91,19.766 14.92,0 22,7.09 22,22.754 0,18.648 -18.27,24.246 -37.3,24.246 -32.82,0 -56.32,-21.633 -56.32,-61.172 l 0,-27.605 -11.94,0 c -13.42,0 -23.49,-10.067 -23.49,-23.496 0,-14.547 8.95,-23.5 23.49,-23.5 l 11.94,0 0,-123.836 z m 137.46,32.078 c 0,32.824 40.66,29.465 73.11,29.465 l 0,-8.579 c 0,-25.738 -12.68,-40.285 -40.65,-40.285 -16.04,0 -32.46,4.852 -32.46,19.399 z m 73.11,-42.149 c 4.1,-16.789 13.8,-19.773 25.37,-19.773 15.66,0 26.11,13.055 26.11,28.726 l 0,116.372 c 0,38.796 -27.6,60.058 -77.21,60.058 -31.71,0 -74.61,-18.656 -74.61,-40.285 0,-10.82 6.72,-22.758 23.5,-22.758 14.18,0 19.77,18.281 51.11,18.281 14.92,0 23.5,-3.73 23.5,-14.171 l 0,-14.547 c -49.62,0 -122.35,-7.836 -122.35,-69.754 0,-42.149 30.96,-64.156 74.23,-64.156 17.9,0 41.03,7.46 50.35,22.007 z m 74.06,10.071 c 0,-17.907 11.19,-29.844 26.86,-29.844 15.66,0 26.85,11.937 26.85,29.844 l 0,82.433 c 0,21.258 16.41,28.348 32.45,35.805 16.04,7.461 32.08,8.582 32.08,26.113 0,19.395 -13.06,28.719 -26.11,28.719 -16.78,0 -27.6,-7.457 -37.67,-22.379 l -0.75,0 c 0,17.16 -11.94,22.379 -26.11,22.379 -13.43,0 -27.6,-8.953 -27.6,-26.856 l 0,-146.214 z m 126.27,0 c 0,-17.907 11.19,-29.844 26.86,-29.844 15.66,0 26.86,11.937 26.86,29.844 l 0,93.621 c 0,21.633 9.69,36.929 31.7,36.929 19.4,0 31.34,-15.296 31.34,-36.929 l 0,-93.621 c 0,-17.907 11.18,-29.844 26.85,-29.844 15.67,0 26.86,11.937 26.86,29.844 l 0,93.621 c 0,21.633 11.93,36.929 31.7,36.929 19.4,0 31.33,-15.296 31.33,-36.929 l 0,-93.621 c 0,-17.907 11.2,-29.844 26.86,-29.844 15.67,0 26.86,11.937 26.86,29.844 l 0,102.945 c 0,47 -29.84,72.367 -73.49,72.367 -18.27,0 -41.77,-10.07 -56.69,-27.23 -14.17,17.902 -33.2,27.23 -55.58,27.23 -19.77,0 -36.93,-8.211 -49.98,-22.383 -1.87,12.684 -10.82,20.141 -24.62,20.141 -15.67,0 -26.86,-11.934 -26.86,-29.84 l 0,-143.23"
         style="fill:#3a3c41;fill-opacity:1;fill-rule:nonzero;stroke:none"
         id="path28" /><g
         transform="scale(1,-1)"
         style="font-size:320px;font-style:normal;font-weight:normal;line-height:125%;letter-spacing:0px;word-spacing:0px;fill:#6DA220;fill-opacity:1;stroke:none;font-family:Sans"
         id="text3009"><path
           d="m 251.13657,-39.506945 c 0,6.911994 4.32001,11.52 10.368,11.52 5.76,0 9.07201,-3.168005 10.368,-8.64 3.888,6.335994 11.95201,9.504 19.008,9.504 20.87998,0 34.128,-19.440019 34.128,-39.024 0,-20.159979 -11.08802,-41.039995 -33.408,-41.039995 -7.19999,0 -14.256,2.448 -19.728,7.199995 l 0,-28.223995 c 0,-6.912 -4.32,-11.52 -10.368,-11.52 -6.04799,0 -10.368,4.608 -10.368,11.52 l 0,88.703995 m 20.736,-28.224 c 0,-10.079989 5.18402,-20.448 16.272,-20.448 10.79999,0 16.128,11.37601 16.128,21.168 0,9.647991 -5.32801,20.88 -16.128,20.88 -11.37598,0 -16.272,-11.52001 -16.272,-21.6"
           style="font-size:144px;font-variant:normal;font-weight:bold;font-stretch:normal;fill:#6DA220;font-family:Rotonda;-inkscape-font-specification:Rotonda Bold"
           id="path3033" /><path
           d="m 333.53607,-39.506945 c 0,6.911994 4.32001,11.52 10.368,11.52 6.048,0 10.368,-4.608006 10.368,-11.52 l 0,-88.703995 c 0,-6.912 -4.32,-11.52 -10.368,-11.52 -6.04799,0 -10.368,4.608 -10.368,11.52 l 0,88.703995"
           style="font-size:144px;font-variant:normal;font-weight:bold;font-stretch:normal;fill:#6DA220;font-family:Rotonda;-inkscape-font-specification:Rotonda Bold"
           id="path3035" /><path
           d="m 400.01457,-107.18694 c -21.88797,0 -37.152,19.152017 -37.152,40.175995 0,21.599979 14.83203,39.888 37.152,39.888 22.31998,0 37.152,-18.288021 37.152,-39.888 0,-21.023978 -15.26402,-40.175995 -37.152,-40.175995 m 0,19.007995 c 11.37599,0 16.416,11.23201 16.416,21.168 0,9.935991 -5.18401,20.88 -16.416,20.88 -11.23198,0 -16.416,-10.944009 -16.416,-20.88 0,-9.93599 5.04002,-21.168 16.416,-21.168"
           style="font-size:144px;font-variant:normal;font-weight:bold;font-stretch:normal;fill:#6DA220;font-family:Rotonda;-inkscape-font-specification:Rotonda Bold"
           id="path3037" /><path
           d="m 516.89082,-94.802945 c 0,-6.911995 -4.32,-11.519995 -10.368,-11.519995 -5.75999,0 -9.072,3.168 -10.368,8.639995 -3.88799,-6.335995 -11.952,-9.503995 -19.008,-9.503995 -20.87997,0 -34.128,19.440016 -34.128,40.319995 0,20.59198 10.22403,39.744 31.968,39.744 9.50399,0 16.56001,-3.456006 20.88,-9.792 l 0.288,0 0,4.896 c 0,10.51199 -7.48801,16.416 -17.568,16.416 -11.95198,0 -19.296,-6.48 -25.92,-6.48 -4.03199,0 -8.352,5.184004 -8.352,9.072 0,11.3759891 24.19201,15.5520005 32.688,15.5520005 23.61598,0 39.888,-12.5280249 39.888,-37.4400005 l 0,-59.904 m -20.736,28.224 c 0,10.07999 -5.18401,20.448 -16.272,20.448 -10.79998,0 -16.128,-10.080011 -16.128,-21.168 0,-9.64799 5.32802,-20.88 16.128,-20.88 11.37599,0 16.272,11.520011 16.272,21.6"
           style="font-size:144px;font-variant:normal;font-weight:bold;font-stretch:normal;fill:#6DA220;font-family:Rotonda;-inkscape-font-specification:Rotonda Bold"
           id="path3039" /></g></g></g></svg>